<?xml version="1.0" encoding="utf-8"?>
<!-- Generator: Adobe Illustrator 16.0.0, SVG Export Plug-In . SVG Version: 6.00 Build 0)  -->
<!DOCTYPE svg PUBLIC "-//W3C//DTD SVG 1.1//EN" "http://www.w3.org/Graphics/SVG/1.1/DTD/svg11.dtd">
<svg version="1.1" xmlns="http://www.w3.org/2000/svg" xmlns:xlink="http://www.w3.org/1999/xlink" x="0px" y="0px"
	 width="572.993px" height="152px" viewBox="0 27.544 572.993 152" enable-background="new 0 27.544 572.993 152"
	 xml:space="preserve">
<g id="Layer_1" display="none">
	<g id="Layer_1_1_" display="inline">
		<g id="Layer_4">
			<path fill="#FF0000" stroke="#FFFFFF" stroke-width="2" stroke-miterlimit="10" d="M332.665,109.13
				c-0.216-1.28-0.449-2.557-0.706-3.829c-0.16-0.792-0.237-1.651-0.229-2.522C322.742,52.625,275.64,10.946,224,10.946
				c-1.37,0-2.734,0.037-4.097,0.092c0.229,70.692,1.936,138.559,2.889,209.243l3.169-0.332c1.381,0,3.162-0.123,4.209,0.331
				c55.139-2.896,103.106-44.758,103.106-100.329C333.277,116.315,333.068,112.706,332.665,109.13z"/>
		</g>
		<g id="Layer_6">
			<path fill="#0600FF" stroke="#FFFFFF" stroke-width="4" stroke-miterlimit="10" d="M225.897,221.144
				c1.402-70.502,3.589-140.991,4.272-211.504c-2.021-0.135-4.053-0.217-6.095-0.23C166.635,9.042,114.47,60.274,114.102,117.713
				c-0.333,52.131,41.635,95.573,92.336,103.431H225.897L225.897,221.144z"/>
		</g>
		<g id="Layer_7" display="none">
			<g display="inline">
				<g>
					<polygon id="SVGID_1_" fill="#FFFFFF" points="227,25 232.5,25 311,25 311,34.12 227,34.12 					"/>
				</g>
				<g>
					<defs>
						<polygon id="SVGID_2_" points="227,25 232.5,25 311,25 311,34.12 227,34.12 						"/>
					</defs>
					<clipPath id="SVGID_3_">
						<use xlink:href="#SVGID_2_"  overflow="visible"/>
					</clipPath>
					<g clip-path="url(#SVGID_3_)">
						
							<image overflow="visible" enable-background="new    " width="354" height="42" xlink:href="AED391AD14897534.jpg"  transform="matrix(0.237 0 0 0.237 227.0481 24.583)">
						</image>
					</g>
				</g>
			</g>
			
				<image display="inline" overflow="visible" enable-background="new    " width="425" height="50" xlink:href="AED391AD14897535.jpg"  transform="matrix(0.2373 0 0 0.2373 227.0969 48.0547)">
			</image>
			
				<image display="inline" overflow="visible" enable-background="new    " width="442" height="50" xlink:href="AED391AD1489753E.jpg"  transform="matrix(0.2369 0 0 0.2369 227.092 71.0645)">
			</image>
			
				<image display="inline" overflow="visible" enable-background="new    " width="462" height="53" xlink:href="AED391AD1489753F.jpg"  transform="matrix(0.2241 0 0 0.2368 228.0881 95.71)">
			</image>
			
				<image display="inline" overflow="visible" enable-background="new    " width="433" height="50" xlink:href="AED391AD14897532.jpg"  transform="matrix(0.2379 0 0 0.2379 229.0969 121.0391)">
			</image>
			
				<image display="inline" overflow="visible" enable-background="new    " width="442" height="50" xlink:href="AED391AD14897533.jpg"  transform="matrix(0.2369 0 0 0.2369 228.092 146.0645)">
			</image>
			
				<image display="inline" overflow="visible" enable-background="new    " width="442" height="50" xlink:href="AED391AD14897530.jpg"  transform="matrix(0.2369 0 0 0.2369 227.092 170.0645)">
			</image>
			
				<image display="inline" overflow="visible" enable-background="new    " width="433" height="50" xlink:href="AED391AD14897531.jpg"  transform="matrix(0.2379 0 0 0.2379 227.0969 196.0391)">
			</image>
			<path display="inline" fill="#FFFFFF" d="M227.967,9.456c-0.191,29.357-0.305,58.463-0.379,87.489
				c-0.108,41.66-0.139,83.154-0.212,124.994"/>
		</g>
		<g id="Layer_8">
			<polygon fill="#FFFFFF" points="207,46 196.459,45.648 190.193,54.132 187.271,43.999 177.266,40.661 186,34.75 186.082,24.204 
				194.403,30.684 204.459,27.503 200.867,37.419 			"/>
			<polygon fill="#FFFFFF" points="178,76 167.459,75.648 161.193,84.132 158.271,73.999 148.266,70.661 157,64.75 157.082,54.204 
				165.403,60.684 175.459,57.503 171.867,67.419 			"/>
			<polygon fill="#FFFFFF" points="158,116 147.459,115.647 141.193,124.132 138.271,113.999 128.266,110.661 137,104.75 
				137.082,94.204 145.403,100.684 155.459,97.503 151.867,107.419 			"/>
			<polygon fill="#FFFFFF" points="173,162 162.459,163.647 156.193,170.132 153.271,159.999 143.266,156.661 152,150.75 
				152.082,140.204 160.403,146.685 170.459,143.503 166.867,153.419 			"/>
			<polygon fill="#FFFFFF" points="206,196 195.459,195.647 189.193,204.133 186.271,193.999 176.266,190.661 185,184.75 
				185.082,174.204 193.403,180.685 203.459,177.503 199.867,187.419 			"/>
		</g>
	</g>
	<g id="Layer_3" display="inline">
		
			<line fill="none" stroke="#FFFFFF" stroke-width="11" stroke-miterlimit="10" x1="226.075" y1="9.408" x2="225.792" y2="220.281"/>
	</g>
	<g id="Layer_2" display="inline">
		<polyline fill="#FFFFFF" points="273.974,25.204 289.045,34.12 230.172,34.12 230.172,25 		"/>
		<polyline fill="#FFFFFF" points="304.847,48.505 312.681,58.585 228.681,58.585 228.681,48.505 		"/>
		<polygon fill="#FFFFFF" points="226.713,71.946 320.871,71.799 325.577,81.879 227.68,82.026 		"/>
		<polygon fill="#FFFFFF" points="229,121.946 333.256,121.946 332.2,132.026 229,132.026 		"/>
		<polyline fill="#FFFFFF" points="330.402,96.945 332.277,107.026 227.869,107.026 227.49,96.945 		"/>
		<polygon fill="#FFFFFF" points="228,146.946 329.328,146.946 325.646,157.026 228,157.026 227.672,146.946 		"/>
		<polygon fill="#FFFFFF" points="227,170.946 316.875,170.946 310.764,181.026 227,181.026 		"/>
		<polygon fill="#FFFFFF" points="226.406,196.946 294.066,196.946 278.316,207.026 226.188,207.026 		"/>
	</g>
</g>
<g id="Layer_2_1_">
	
		<text transform="matrix(1 0 0 1 6.9934 173.5439)" fill="#A00000" font-family="'Arial-BoldMT'" font-size="166" letter-spacing="-11">Politickr</text>
</g>
</svg>
