<?xml version="1.0" encoding="utf-8"?>
<!-- Generator: Adobe Illustrator 16.0.0, SVG Export Plug-In . SVG Version: 6.00 Build 0)  -->
<!DOCTYPE svg PUBLIC "-//W3C//DTD SVG 1.1//EN" "http://www.w3.org/Graphics/SVG/1.1/DTD/svg11.dtd">
<svg version="1.1" xmlns="http://www.w3.org/2000/svg" xmlns:xlink="http://www.w3.org/1999/xlink" x="0px" y="0px"
	 width="306.076px" height="240.022px" viewBox="60.091 -0.022 306.076 240.022"
	 enable-background="new 60.091 -0.022 306.076 240.022" xml:space="preserve">
<g id="Layer_1">
	<g id="Layer_4">
		<path fill="#FF0000" stroke="#FFFFFF" stroke-width="2" stroke-miterlimit="10" d="M221,8.626c-1.37,0-2.733,0.037-4.097,0.092
			c0.23,70.974,1.988,141.93,2.939,212.897c0.569,0.01,1.14,0.02,1.71,0.02c57.44,0,108.725-46.563,108.725-104.004
			S278.439,8.626,221,8.626z"/>
	</g>
	<g id="Layer_6">
		<path fill="#0600FF" stroke="#FFFFFF" stroke-width="4" stroke-miterlimit="10" d="M214.891,8.449
			c2.042-0.026,4.074,0.018,6.098,0.115c0.648,70.919-0.226,141.841-0.292,212.762c-1.232,0.061-2.47,0.107-3.711,0.123
			c-57.435,0.714-109.294-45.21-110.009-102.645C106.264,61.368,157.455,9.163,214.891,8.449z"/>
	</g>
	<g id="Layer_8">
		<polygon fill="#FFFFFF" points="207,46 196.459,45.648 190.193,54.132 187.271,43.999 177.266,40.661 186,34.75 186.082,24.204 
			194.403,30.684 204.459,27.503 200.867,37.419 		"/>
		<polygon fill="#FFFFFF" points="178,76 167.459,75.648 161.193,84.132 158.271,73.999 148.266,70.661 157,64.75 157.082,54.204 
			165.403,60.684 175.459,57.503 171.867,67.419 		"/>
		<polygon fill="#FFFFFF" points="158,116 147.459,115.648 141.193,124.132 138.271,113.999 128.266,110.661 137,104.75 
			137.082,94.204 145.403,100.684 155.459,97.503 151.867,107.419 		"/>
		<polygon fill="#FFFFFF" points="173,162 162.459,163.648 156.193,170.132 153.271,159.999 143.266,156.661 152,150.75 
			152.082,140.204 160.403,146.684 170.459,143.503 166.867,153.419 		"/>
		<polygon fill="#FFFFFF" points="206,196 195.459,195.648 189.193,204.133 186.271,193.999 176.266,190.661 185,184.75 
			185.082,174.204 193.403,180.684 203.459,177.503 199.867,187.419 		"/>
	</g>
	
		<text transform="matrix(1 0 0 1 60.0908 315.1689)" display="none" fill="#999999" enable-background="new    " font-family="'MyriadPro-Regular'" font-size="100">Politickr</text>
	<polygon fill="#FFFFFF" stroke="#FFFFFF" stroke-width="2" stroke-miterlimit="10" points="214.792,10.333 226.834,10.352 
		226.666,221.31 214.792,221.31 	"/>
	<polygon fill="#FFFFFF" stroke="#FFFFFF" stroke-width="2" stroke-miterlimit="10" points="226.834,23.204 273.591,23.371 
		287.124,33.604 226.834,33.604 	"/>
	<polygon fill="#FFFFFF" stroke="#FFFFFF" stroke-width="2" stroke-miterlimit="10" points="228.168,49.741 304.63,49.741 
		312.366,60.142 228.168,60.142 	"/>
	<polygon fill="#FFFFFF" stroke="#FFFFFF" stroke-width="2" stroke-miterlimit="10" points="227.501,78.54 320.963,78.54 
		324.699,88.94 227.501,88.94 	"/>
	<polygon fill="#FFFFFF" stroke="#FFFFFF" stroke-width="2" stroke-miterlimit="10" points="227.501,108.54 327.963,108.54 
		328.699,118.94 227.501,118.94 	"/>
	<polygon fill="#FFFFFF" stroke="#FFFFFF" stroke-width="2" stroke-miterlimit="10" points="227.501,138.54 326.963,138.54 
		323.699,148.94 227.501,148.94 	"/>
	<polygon fill="#FFFFFF" stroke="#FFFFFF" stroke-width="2" stroke-miterlimit="10" points="227.834,165.338 317.296,165.338 
		309.032,175.738 227.834,175.738 	"/>
	<polygon fill="#FFFFFF" stroke="#FFFFFF" stroke-width="2" stroke-miterlimit="10" points="227.501,193.207 293.963,193.207 
		279.699,203.607 227.501,203.607 	"/>
</g>
<g id="Layer_2">
</g>
</svg>
